<svg width="16" height="14" viewBox="0 0 16 14" fill="none" xmlns="http://www.w3.org/2000/svg">
<path fill-rule="evenodd" clip-rule="evenodd" d="M13.7132 0.429457L7.87485 6.26779C7.5524 6.59023 7.5524 7.11302 7.87485 7.43546L13.7132 13.2738C14.0356 13.5962 14.5584 13.5962 14.8808 13.2738C15.2033 12.9514 15.2033 12.4286 14.8808 12.1061L9.62635 6.85162L14.8808 1.59712C15.2033 1.27468 15.2033 0.751899 14.8808 0.429457C14.5584 0.107014 14.0356 0.107015 13.7132 0.429457ZM6.56682 0.429457L0.728483 6.26779C0.406041 6.59023 0.40604 7.11302 0.728483 7.43546L6.56682 13.2738C6.88926 13.5962 7.41204 13.5962 7.73449 13.2738C8.05693 12.9514 8.05693 12.4286 7.73449 12.1061L2.47998 6.85162L7.73449 1.59712C8.05693 1.27468 8.05693 0.751899 7.73449 0.429457C7.41204 0.107014 6.88926 0.107015 6.56682 0.429457Z" fill="#6B778C"/>
</svg>
